<svg xmlns="http://www.w3.org/2000/svg" viewBox="0 0 32 32" fill="none">
  <rect width="32" height="32" rx="6" fill="url(#gradient)"/>
  <path d="M8 13a2 2 0 0 1 2-2h12a2 2 0 0 1 2 2v6a2 2 0 0 1-2 2H10a2 2 0 0 1-2-2v-6z" stroke="#0A0E27" stroke-width="1.5" fill="none"/>
  <circle cx="12" cy="16" r="1.5" fill="#0A0E27"/>
  <circle cx="20" cy="14" r="1" fill="#0A0E27"/>
  <circle cx="20" cy="18" r="1" fill="#0A0E27"/>
  <circle cx="18" cy="16" r="1" fill="#0A0E27"/>
  <circle cx="22" cy="16" r="1" fill="#0A0E27"/>
  <rect x="14" y="15" width="4" height="2" rx="0.5" fill="#0A0E27"/>
  <defs>
    <linearGradient id="gradient" x1="0" y1="0" x2="32" y2="32">
      <stop offset="0%" stop-color="#00D9FF"/>
      <stop offset="100%" stop-color="#B845FF"/>
    </linearGradient>
  </defs>
</svg>
